<mxfile host="app.diagrams.net" modified="2024-06-25T12:07:11.709Z" agent="Mozilla/5.0 (Windows NT 10.0; Win64; x64) AppleWebKit/537.36 (KHTML, like Gecko) Chrome/126.0.0.0 Safari/537.36" etag="DXocYOCI5bM2ssrdJdEh" version="24.6.2" type="github">
  <diagram name="Page-1" id="Mo1r9qOi_2OYH27BYrNv">
    <mxGraphModel dx="1900" dy="564" grid="1" gridSize="10" guides="1" tooltips="1" connect="1" arrows="1" fold="1" page="1" pageScale="1" pageWidth="850" pageHeight="1100" background="#FFFFFF" math="0" shadow="0">
      <root>
        <mxCell id="0" />
        <mxCell id="1" parent="0" />
        <mxCell id="sSOU6rIHBW97o_kDDXap-16" style="edgeStyle=orthogonalEdgeStyle;rounded=0;orthogonalLoop=1;jettySize=auto;html=1;entryX=0;entryY=0.5;entryDx=0;entryDy=0;labelBackgroundColor=none;strokeColor=#23445D;fontColor=default;" parent="1" source="sSOU6rIHBW97o_kDDXap-2" target="sSOU6rIHBW97o_kDDXap-3" edge="1">
          <mxGeometry relative="1" as="geometry">
            <Array as="points">
              <mxPoint x="195" y="290" />
              <mxPoint x="195" y="210" />
            </Array>
          </mxGeometry>
        </mxCell>
        <mxCell id="sSOU6rIHBW97o_kDDXap-21" style="edgeStyle=orthogonalEdgeStyle;rounded=0;orthogonalLoop=1;jettySize=auto;html=1;exitX=0.5;exitY=1;exitDx=0;exitDy=0;labelBackgroundColor=none;strokeColor=#23445D;fontColor=default;" parent="1" source="sSOU6rIHBW97o_kDDXap-2" target="sSOU6rIHBW97o_kDDXap-6" edge="1">
          <mxGeometry relative="1" as="geometry" />
        </mxCell>
        <mxCell id="sSOU6rIHBW97o_kDDXap-2" value="&lt;b&gt;Processing&lt;/b&gt;" style="rhombus;whiteSpace=wrap;html=1;labelBackgroundColor=none;fillColor=#f5f5f5;strokeColor=#666666;gradientColor=#b3b3b3;" parent="1" vertex="1">
          <mxGeometry x="80" y="250" width="110" height="80" as="geometry" />
        </mxCell>
        <mxCell id="sSOU6rIHBW97o_kDDXap-17" style="edgeStyle=orthogonalEdgeStyle;rounded=0;orthogonalLoop=1;jettySize=auto;html=1;entryX=0;entryY=0.5;entryDx=0;entryDy=0;labelBackgroundColor=none;strokeColor=#23445D;fontColor=default;" parent="1" source="sSOU6rIHBW97o_kDDXap-3" edge="1">
          <mxGeometry relative="1" as="geometry">
            <mxPoint x="260" y="140" as="sourcePoint" />
            <mxPoint x="332" y="120" as="targetPoint" />
            <Array as="points">
              <mxPoint x="258" y="120" />
            </Array>
          </mxGeometry>
        </mxCell>
        <mxCell id="sSOU6rIHBW97o_kDDXap-18" style="edgeStyle=orthogonalEdgeStyle;rounded=0;orthogonalLoop=1;jettySize=auto;html=1;exitX=1;exitY=0.5;exitDx=0;exitDy=0;labelBackgroundColor=none;strokeColor=#23445D;fontColor=default;" parent="1" source="sSOU6rIHBW97o_kDDXap-3" target="sSOU6rIHBW97o_kDDXap-5" edge="1">
          <mxGeometry relative="1" as="geometry" />
        </mxCell>
        <mxCell id="sSOU6rIHBW97o_kDDXap-3" value="&lt;b&gt;Extract Features&lt;/b&gt;" style="rhombus;whiteSpace=wrap;html=1;labelBackgroundColor=none;fillColor=#0050ef;strokeColor=#001DBC;fontColor=#ffffff;" parent="1" vertex="1">
          <mxGeometry x="215" y="170" width="85" height="80" as="geometry" />
        </mxCell>
        <mxCell id="sSOU6rIHBW97o_kDDXap-22" style="edgeStyle=orthogonalEdgeStyle;rounded=0;orthogonalLoop=1;jettySize=auto;html=1;entryX=0.5;entryY=0;entryDx=0;entryDy=0;labelBackgroundColor=none;strokeColor=#23445D;fontColor=default;" parent="1" source="sSOU6rIHBW97o_kDDXap-4" target="sSOU6rIHBW97o_kDDXap-7" edge="1">
          <mxGeometry relative="1" as="geometry" />
        </mxCell>
        <mxCell id="sSOU6rIHBW97o_kDDXap-4" value="&lt;b&gt;Count Tags/Keywords&lt;/b&gt;" style="rhombus;whiteSpace=wrap;html=1;labelBackgroundColor=none;fillColor=#182E3E;strokeColor=#FFFFFF;fontColor=#FFFFFF;" parent="1" vertex="1">
          <mxGeometry x="332" y="71" width="118" height="97" as="geometry" />
        </mxCell>
        <mxCell id="sSOU6rIHBW97o_kDDXap-25" style="edgeStyle=orthogonalEdgeStyle;rounded=0;orthogonalLoop=1;jettySize=auto;html=1;labelBackgroundColor=none;strokeColor=#23445D;fontColor=default;" parent="1" source="sSOU6rIHBW97o_kDDXap-5" target="sSOU6rIHBW97o_kDDXap-7" edge="1">
          <mxGeometry relative="1" as="geometry" />
        </mxCell>
        <mxCell id="sSOU6rIHBW97o_kDDXap-5" value="&lt;b&gt;Calculate Length&lt;/b&gt;" style="rhombus;whiteSpace=wrap;html=1;labelBackgroundColor=none;fillColor=#dae8fc;strokeColor=#6c8ebf;gradientColor=#7ea6e0;" parent="1" vertex="1">
          <mxGeometry x="340" y="200" width="110" height="100" as="geometry" />
        </mxCell>
        <mxCell id="sSOU6rIHBW97o_kDDXap-26" style="edgeStyle=orthogonalEdgeStyle;rounded=0;orthogonalLoop=1;jettySize=auto;html=1;labelBackgroundColor=none;strokeColor=#23445D;fontColor=default;" parent="1" source="sSOU6rIHBW97o_kDDXap-6" target="sSOU6rIHBW97o_kDDXap-7" edge="1">
          <mxGeometry relative="1" as="geometry" />
        </mxCell>
        <mxCell id="sSOU6rIHBW97o_kDDXap-6" value="&lt;b&gt;Create Doc2Vec Vector&lt;/b&gt;" style="rhombus;whiteSpace=wrap;html=1;labelBackgroundColor=none;fillColor=#f8cecc;strokeColor=#b85450;gradientColor=#ea6b66;" parent="1" vertex="1">
          <mxGeometry x="250" y="330" width="120" height="105" as="geometry" />
        </mxCell>
        <mxCell id="sSOU6rIHBW97o_kDDXap-27" style="edgeStyle=orthogonalEdgeStyle;rounded=0;orthogonalLoop=1;jettySize=auto;html=1;labelBackgroundColor=none;strokeColor=#23445D;fontColor=default;" parent="1" source="sSOU6rIHBW97o_kDDXap-7" target="sSOU6rIHBW97o_kDDXap-8" edge="1">
          <mxGeometry relative="1" as="geometry">
            <mxPoint x="747" y="110" as="targetPoint" />
          </mxGeometry>
        </mxCell>
        <mxCell id="sSOU6rIHBW97o_kDDXap-7" value="&lt;b&gt;Combined Features&lt;/b&gt;" style="rhombus;whiteSpace=wrap;html=1;labelBackgroundColor=none;fillColor=#d80073;strokeColor=#A50040;fontColor=#ffffff;" parent="1" vertex="1">
          <mxGeometry x="502.5" y="110" width="120" height="110" as="geometry" />
        </mxCell>
        <mxCell id="sSOU6rIHBW97o_kDDXap-28" style="edgeStyle=orthogonalEdgeStyle;rounded=0;orthogonalLoop=1;jettySize=auto;html=1;entryX=0.5;entryY=0;entryDx=0;entryDy=0;labelBackgroundColor=none;strokeColor=#23445D;fontColor=default;" parent="1" source="sSOU6rIHBW97o_kDDXap-8" target="sSOU6rIHBW97o_kDDXap-9" edge="1">
          <mxGeometry relative="1" as="geometry" />
        </mxCell>
        <mxCell id="sSOU6rIHBW97o_kDDXap-8" value="&lt;b&gt;Combined Features Vectors&lt;/b&gt;" style="rounded=1;whiteSpace=wrap;html=1;labelBackgroundColor=none;" parent="1" vertex="1">
          <mxGeometry x="670" y="120" width="160" height="40" as="geometry" />
        </mxCell>
        <mxCell id="sSOU6rIHBW97o_kDDXap-29" style="edgeStyle=orthogonalEdgeStyle;rounded=0;orthogonalLoop=1;jettySize=auto;html=1;entryX=0.5;entryY=0;entryDx=0;entryDy=0;labelBackgroundColor=none;strokeColor=#23445D;fontColor=default;" parent="1" source="sSOU6rIHBW97o_kDDXap-9" target="sSOU6rIHBW97o_kDDXap-10" edge="1">
          <mxGeometry relative="1" as="geometry" />
        </mxCell>
        <mxCell id="sSOU6rIHBW97o_kDDXap-9" value="&lt;b&gt;Machine Learning Model&lt;/b&gt;" style="rhombus;whiteSpace=wrap;html=1;labelBackgroundColor=none;fillColor=#b0e3e6;strokeColor=#0e8088;" parent="1" vertex="1">
          <mxGeometry x="683.5" y="205" width="133.5" height="105" as="geometry" />
        </mxCell>
        <mxCell id="sSOU6rIHBW97o_kDDXap-31" style="edgeStyle=orthogonalEdgeStyle;rounded=0;orthogonalLoop=1;jettySize=auto;html=1;entryX=0.5;entryY=0;entryDx=0;entryDy=0;labelBackgroundColor=none;strokeColor=#23445D;fontColor=default;" parent="1" source="sSOU6rIHBW97o_kDDXap-10" target="sSOU6rIHBW97o_kDDXap-11" edge="1">
          <mxGeometry relative="1" as="geometry" />
        </mxCell>
        <mxCell id="sSOU6rIHBW97o_kDDXap-10" value="&lt;b&gt;Prediction&lt;/b&gt;" style="rhombus;whiteSpace=wrap;html=1;labelBackgroundColor=none;fillColor=#d0cee2;strokeColor=#56517e;" parent="1" vertex="1">
          <mxGeometry x="700.5" y="350" width="100.5" height="80" as="geometry" />
        </mxCell>
        <mxCell id="sSOU6rIHBW97o_kDDXap-32" style="edgeStyle=orthogonalEdgeStyle;rounded=0;orthogonalLoop=1;jettySize=auto;html=1;entryX=0.5;entryY=0;entryDx=0;entryDy=0;labelBackgroundColor=none;strokeColor=#23445D;fontColor=default;" parent="1" source="sSOU6rIHBW97o_kDDXap-11" target="sSOU6rIHBW97o_kDDXap-12" edge="1">
          <mxGeometry relative="1" as="geometry" />
        </mxCell>
        <mxCell id="sSOU6rIHBW97o_kDDXap-36" value="" style="edgeStyle=orthogonalEdgeStyle;rounded=0;orthogonalLoop=1;jettySize=auto;html=1;strokeColor=#23445D;" parent="1" source="sSOU6rIHBW97o_kDDXap-11" target="sSOU6rIHBW97o_kDDXap-13" edge="1">
          <mxGeometry relative="1" as="geometry" />
        </mxCell>
        <mxCell id="sSOU6rIHBW97o_kDDXap-11" value="&lt;b&gt;Classification&amp;nbsp;&lt;/b&gt;" style="rounded=1;whiteSpace=wrap;html=1;labelBackgroundColor=none;fillColor=#1ba1e2;strokeColor=#006EAF;fontColor=#ffffff;" parent="1" vertex="1">
          <mxGeometry x="698" y="470" width="105.5" height="40" as="geometry" />
        </mxCell>
        <mxCell id="sSOU6rIHBW97o_kDDXap-12" value="&lt;b&gt;XSS&lt;/b&gt;" style="ellipse;whiteSpace=wrap;html=1;direction=south;labelBackgroundColor=none;fillColor=#FF5263;strokeColor=#36393d;fillStyle=solid;" parent="1" vertex="1">
          <mxGeometry x="520" y="420" width="80" height="50" as="geometry" />
        </mxCell>
        <mxCell id="sSOU6rIHBW97o_kDDXap-13" value="&lt;b&gt;NOT XSS&lt;/b&gt;" style="ellipse;whiteSpace=wrap;html=1;labelBackgroundColor=none;fillColor=#008a00;strokeColor=#005700;fontColor=#ffffff;" parent="1" vertex="1">
          <mxGeometry x="520" y="510" width="80" height="50" as="geometry" />
        </mxCell>
        <mxCell id="sSOU6rIHBW97o_kDDXap-33" style="edgeStyle=orthogonalEdgeStyle;rounded=0;orthogonalLoop=1;jettySize=auto;html=1;entryX=1;entryY=0.5;entryDx=0;entryDy=0;labelBackgroundColor=none;strokeColor=#23445D;fontColor=default;" parent="1" target="sSOU6rIHBW97o_kDDXap-13" edge="1">
          <mxGeometry relative="1" as="geometry">
            <mxPoint x="690" y="490" as="sourcePoint" />
            <mxPoint x="610.0000000000001" y="547.2" as="targetPoint" />
            <Array as="points">
              <mxPoint x="680" y="490" />
              <mxPoint x="680" y="491" />
              <mxPoint x="650" y="491" />
              <mxPoint x="650" y="535" />
            </Array>
          </mxGeometry>
        </mxCell>
        <mxCell id="sSOU6rIHBW97o_kDDXap-35" style="edgeStyle=orthogonalEdgeStyle;rounded=0;orthogonalLoop=1;jettySize=auto;html=1;entryX=0;entryY=0.5;entryDx=0;entryDy=0;strokeColor=#23445D;labelBackgroundColor=none;fontColor=default;" parent="1" source="sSOU6rIHBW97o_kDDXap-34" target="sSOU6rIHBW97o_kDDXap-2" edge="1">
          <mxGeometry relative="1" as="geometry" />
        </mxCell>
        <mxCell id="sSOU6rIHBW97o_kDDXap-34" value="&lt;b&gt;Protential XSS files&lt;/b&gt;" style="shape=datastore;whiteSpace=wrap;html=1;strokeColor=#C73500;fontColor=#000000;fillColor=#fa6800;labelBackgroundColor=none;" parent="1" vertex="1">
          <mxGeometry x="-90" y="250" width="80" height="80" as="geometry" />
        </mxCell>
      </root>
    </mxGraphModel>
  </diagram>
</mxfile>
